<svg width="117" height="58" viewBox="0 0 117 58" fill="none" xmlns="http://www.w3.org/2000/svg">
<path d="M0.5 0.5H112C114.485 0.5 116.5 2.51472 116.5 5V53C116.5 55.4853 114.485 57.5 112 57.5H0.5V0.5Z" fill="#23A6F0"/>
<path d="M27.1077 25.502C26.6317 25.502 26.2397 25.6 25.9317 25.796C25.6237 25.992 25.4697 26.2907 25.4697 26.692C25.4697 27.084 25.6237 27.3873 25.9317 27.602C26.2397 27.8073 26.893 28.0313 27.8917 28.274C28.8997 28.5167 29.6557 28.8573 30.1597 29.296C30.673 29.7347 30.9297 30.3833 30.9297 31.242C30.9297 32.0913 30.6077 32.782 29.9637 33.314C29.3197 33.846 28.475 34.112 27.4297 34.112C25.899 34.112 24.541 33.5847 23.3557 32.53L24.3917 31.284C25.381 32.1427 26.4077 32.572 27.4717 32.572C28.0037 32.572 28.4237 32.46 28.7317 32.236C29.049 32.0027 29.2077 31.6993 29.2077 31.326C29.2077 30.9433 29.0584 30.6493 28.7597 30.444C28.4704 30.2293 27.9664 30.038 27.2477 29.87C26.529 29.6927 25.983 29.534 25.6097 29.394C25.2364 29.2447 24.905 29.0533 24.6157 28.82C24.037 28.3813 23.7477 27.7093 23.7477 26.804C23.7477 25.8987 24.0744 25.2033 24.7277 24.718C25.3904 24.2233 26.207 23.976 27.1777 23.976C27.803 23.976 28.4237 24.0787 29.0397 24.284C29.6557 24.4893 30.1877 24.7787 30.6357 25.152L29.7537 26.398C29.4644 26.1367 29.0724 25.922 28.5777 25.754C28.083 25.586 27.593 25.502 27.1077 25.502ZM38.074 30.584V26.552H39.642V34H38.074V32.642C37.822 33.0993 37.472 33.4587 37.024 33.72C36.5854 33.9813 36.1094 34.112 35.596 34.112C34.756 34.112 34.0747 33.8553 33.552 33.342C33.0387 32.8287 32.782 32.0867 32.782 31.116V26.552H34.35V30.64C34.35 32.012 34.9194 32.698 36.058 32.698C36.5994 32.698 37.0707 32.5207 37.472 32.166C37.8734 31.802 38.074 31.2747 38.074 30.584ZM46.1068 26.44C47.1055 26.44 47.9595 26.7853 48.6688 27.476C49.3781 28.1667 49.7328 29.086 49.7328 30.234C49.7328 31.382 49.3781 32.3153 48.6688 33.034C47.9688 33.7527 47.1475 34.112 46.2048 34.112C45.2715 34.112 44.4315 33.7013 43.6848 32.88V34H42.1168V23.612H43.6848V27.854C44.3008 26.9113 45.1081 26.44 46.1068 26.44ZM43.6568 30.29C43.6568 30.9993 43.8715 31.5827 44.3008 32.04C44.7301 32.488 45.2528 32.712 45.8688 32.712C46.4848 32.712 47.0215 32.488 47.4788 32.04C47.9361 31.592 48.1648 31.0133 48.1648 30.304C48.1648 29.5853 47.9408 28.9927 47.4928 28.526C47.0448 28.05 46.5081 27.812 45.8828 27.812C45.2575 27.812 44.7301 28.05 44.3008 28.526C43.8715 28.9927 43.6568 29.5807 43.6568 30.29ZM57.0291 31.774C57.0291 32.4833 56.7724 33.0527 56.2591 33.482C55.7457 33.902 55.0877 34.112 54.2851 34.112C53.7437 34.112 53.1791 34.014 52.5911 33.818C52.0124 33.622 51.4991 33.3467 51.0511 32.992L51.8071 31.774C52.6751 32.4273 53.5151 32.754 54.3271 32.754C54.6817 32.754 54.9617 32.6747 55.1671 32.516C55.3724 32.348 55.4751 32.138 55.4751 31.886C55.4751 31.5127 54.9804 31.1767 53.9911 30.878C53.9164 30.85 53.8604 30.8313 53.8231 30.822C52.2737 30.402 51.4991 29.702 51.4991 28.722C51.4991 28.0313 51.7651 27.4807 52.2971 27.07C52.8384 26.65 53.5384 26.44 54.3971 26.44C55.2557 26.44 56.0677 26.692 56.8331 27.196L56.2451 28.358C55.6384 27.9567 54.9804 27.756 54.2711 27.756C53.8977 27.756 53.5944 27.826 53.3611 27.966C53.1277 28.0967 53.0111 28.2973 53.0111 28.568C53.0111 28.8107 53.1324 28.988 53.3751 29.1C53.5431 29.184 53.7764 29.2633 54.0751 29.338C54.3831 29.4127 54.6537 29.4873 54.8871 29.562C55.1204 29.6367 55.3444 29.7207 55.5591 29.814C55.7831 29.9073 56.0211 30.038 56.2731 30.206C56.7771 30.542 57.0291 31.0647 57.0291 31.774ZM62.3091 34.112C61.2731 34.112 60.3818 33.762 59.6351 33.062C58.8884 32.3527 58.5151 31.4287 58.5151 30.29C58.5151 29.1513 58.9024 28.2273 59.6771 27.518C60.4611 26.7993 61.4131 26.44 62.5331 26.44C63.6531 26.44 64.6004 26.8273 65.3751 27.602L64.4511 28.736C63.8071 28.176 63.1584 27.896 62.5051 27.896C61.8518 27.896 61.2824 28.1153 60.7971 28.554C60.3211 28.9833 60.0831 29.5433 60.0831 30.234C60.0831 30.9153 60.3211 31.494 60.7971 31.97C61.2731 32.446 61.8564 32.684 62.5471 32.684C63.2471 32.684 63.9051 32.3667 64.5211 31.732L65.4451 32.74C64.5398 33.6547 63.4944 34.112 62.3091 34.112ZM71.1775 28.022C70.4028 28.022 69.8195 28.274 69.4275 28.778C69.0355 29.282 68.8395 29.9587 68.8395 30.808V34H67.2715V26.552H68.8395V28.05C69.0915 27.5833 69.4322 27.2007 69.8615 26.902C70.3002 26.6033 70.7622 26.4493 71.2475 26.44L71.2615 28.022C71.2335 28.022 71.2055 28.022 71.1775 28.022ZM74.604 34H73.036V26.552H74.604V34ZM73.134 25.068C72.938 24.872 72.84 24.6387 72.84 24.368C72.84 24.0973 72.938 23.864 73.134 23.668C73.33 23.472 73.5633 23.374 73.834 23.374C74.1046 23.374 74.338 23.472 74.534 23.668C74.73 23.864 74.828 24.0973 74.828 24.368C74.828 24.6387 74.73 24.872 74.534 25.068C74.338 25.264 74.1046 25.362 73.834 25.362C73.5633 25.362 73.33 25.264 73.134 25.068ZM81.0678 26.44C82.0664 26.44 82.9204 26.7853 83.6298 27.476C84.3391 28.1667 84.6938 29.086 84.6938 30.234C84.6938 31.382 84.3391 32.3153 83.6298 33.034C82.9298 33.7527 82.1084 34.112 81.1658 34.112C80.2324 34.112 79.3924 33.7013 78.6458 32.88V34H77.0778V23.612H78.6458V27.854C79.2618 26.9113 80.0691 26.44 81.0678 26.44ZM78.6178 30.29C78.6178 30.9993 78.8324 31.5827 79.2618 32.04C79.6911 32.488 80.2138 32.712 80.8298 32.712C81.4458 32.712 81.9824 32.488 82.4398 32.04C82.8971 31.592 83.1258 31.0133 83.1258 30.304C83.1258 29.5853 82.9018 28.9927 82.4538 28.526C82.0058 28.05 81.4691 27.812 80.8438 27.812C80.2184 27.812 79.6911 28.05 79.2618 28.526C78.8324 28.9927 78.6178 29.5807 78.6178 30.29ZM93.614 30.962H87.776C87.8133 31.5033 88.0607 31.942 88.518 32.278C88.9753 32.6047 89.498 32.768 90.086 32.768C91.0193 32.768 91.7287 32.474 92.214 31.886L93.11 32.866C92.3073 33.6967 91.262 34.112 89.974 34.112C88.9287 34.112 88.0373 33.7667 87.3 33.076C86.572 32.376 86.208 31.4427 86.208 30.276C86.208 29.1 86.5813 28.1667 87.328 27.476C88.0747 26.7853 88.952 26.44 89.96 26.44C90.9773 26.44 91.8407 26.748 92.55 27.364C93.2593 27.9707 93.614 28.8107 93.614 29.884V30.962ZM87.776 29.73H92.046C92.046 29.1047 91.85 28.624 91.458 28.288C91.066 27.952 90.5807 27.784 90.002 27.784C89.4327 27.784 88.9193 27.9613 88.462 28.316C88.0047 28.6613 87.776 29.1327 87.776 29.73Z" fill="white"/>
<path d="M0.5 0.5H112C114.485 0.5 116.5 2.51472 116.5 5V53C116.5 55.4853 114.485 57.5 112 57.5H0.5V0.5Z" stroke="#E6E6E6"/>
</svg>
