<svg width="321" height="58" viewBox="0 0 321 58" fill="none" xmlns="http://www.w3.org/2000/svg">
<rect x="0.5" y="0.5" width="320" height="57" rx="4.5" fill="#F9F9F9"/>
<path d="M25.208 34H23.528V30.136L19.888 24.214H21.694L24.368 28.666L27.042 24.214H28.848L25.208 30.136V34ZM30.9723 32.04C31.4203 32.488 31.985 32.712 32.6663 32.712C33.3477 32.712 33.9077 32.488 34.3463 32.04C34.7943 31.5827 35.0183 30.9947 35.0183 30.276C35.0183 29.5573 34.7943 28.974 34.3463 28.526C33.9077 28.0687 33.3477 27.84 32.6663 27.84C31.985 27.84 31.4203 28.0687 30.9723 28.526C30.5337 28.974 30.3143 29.5573 30.3143 30.276C30.3143 30.9947 30.5337 31.5827 30.9723 32.04ZM35.4663 33.006C34.7197 33.7433 33.7863 34.112 32.6663 34.112C31.5463 34.112 30.613 33.7433 29.8663 33.006C29.1197 32.2593 28.7463 31.3493 28.7463 30.276C28.7463 29.2027 29.1197 28.2973 29.8663 27.56C30.613 26.8133 31.5463 26.44 32.6663 26.44C33.7863 26.44 34.7197 26.8133 35.4663 27.56C36.213 28.2973 36.5863 29.2027 36.5863 30.276C36.5863 31.3493 36.213 32.2593 35.4663 33.006ZM43.7772 30.584V26.552H45.3452V34H43.7772V32.642C43.5252 33.0993 43.1752 33.4587 42.7272 33.72C42.2885 33.9813 41.8125 34.112 41.2992 34.112C40.4592 34.112 39.7778 33.8553 39.2552 33.342C38.7418 32.8287 38.4852 32.0867 38.4852 31.116V26.552H40.0532V30.64C40.0532 32.012 40.6225 32.698 41.7612 32.698C42.3025 32.698 42.7738 32.5207 43.1752 32.166C43.5765 31.802 43.7772 31.2747 43.7772 30.584ZM51.7259 28.022C50.9513 28.022 50.3679 28.274 49.9759 28.778C49.5839 29.282 49.3879 29.9587 49.3879 30.808V34H47.8199V26.552H49.3879V28.05C49.6399 27.5833 49.9806 27.2007 50.4099 26.902C50.8486 26.6033 51.3106 26.4493 51.7959 26.44L51.8099 28.022C51.7819 28.022 51.7539 28.022 51.7259 28.022ZM64.7242 24.214V25.768H59.5022V28.358H64.1922V29.828H59.5022V32.446H64.8922V34H57.8502V24.214H64.7242ZM68.5543 29.968V34H66.9863V26.552H68.5543V27.91C68.7783 27.4527 69.1143 27.0933 69.5623 26.832C70.0197 26.5707 70.5097 26.44 71.0323 26.44C72.2083 26.44 73.0063 26.9253 73.4263 27.896C74.1637 26.9253 75.083 26.44 76.1843 26.44C77.0243 26.44 77.701 26.6967 78.2143 27.21C78.737 27.7233 78.9983 28.4653 78.9983 29.436V34H77.4303V29.912C77.4303 28.54 76.861 27.854 75.7223 27.854C75.1903 27.854 74.7237 28.0267 74.3223 28.372C73.9303 28.708 73.725 29.2027 73.7063 29.856V34H72.1383V29.912C72.1383 29.2027 72.0123 28.6847 71.7603 28.358C71.5083 28.022 71.1117 27.854 70.5703 27.854C70.029 27.854 69.5577 28.036 69.1563 28.4C68.755 28.7547 68.5543 29.2773 68.5543 29.968ZM87.4118 34H85.9838V33.006C85.3678 33.7433 84.5418 34.112 83.5058 34.112C82.7311 34.112 82.0871 33.8927 81.5738 33.454C81.0698 33.0153 80.8178 32.432 80.8178 31.704C80.8178 30.9667 81.0884 30.416 81.6298 30.052C82.1711 29.688 82.9038 29.506 83.8278 29.506H85.8578V29.226C85.8578 28.2367 85.3071 27.742 84.2058 27.742C83.5151 27.742 82.7964 27.994 82.0498 28.498L81.3498 27.518C82.2551 26.7993 83.2818 26.44 84.4298 26.44C85.3071 26.44 86.0211 26.664 86.5718 27.112C87.1318 27.5507 87.4118 28.246 87.4118 29.198V34ZM85.8438 31.228V30.598H84.0798C82.9504 30.598 82.3858 30.9527 82.3858 31.662C82.3858 32.026 82.5258 32.306 82.8058 32.502C83.0858 32.6887 83.4731 32.782 83.9678 32.782C84.4718 32.782 84.9104 32.642 85.2838 32.362C85.6571 32.082 85.8438 31.704 85.8438 31.228ZM91.3625 34H89.7945V26.552H91.3625V34ZM89.8925 25.068C89.6965 24.872 89.5985 24.6387 89.5985 24.368C89.5985 24.0973 89.6965 23.864 89.8925 23.668C90.0885 23.472 90.3219 23.374 90.5925 23.374C90.8632 23.374 91.0965 23.472 91.2925 23.668C91.4885 23.864 91.5865 24.0973 91.5865 24.368C91.5865 24.6387 91.4885 24.872 91.2925 25.068C91.0965 25.264 90.8632 25.362 90.5925 25.362C90.3219 25.362 90.0885 25.264 89.8925 25.068ZM95.4043 34H93.8363V23.612H95.4043V34Z" fill="#737373"/>
<rect x="0.5" y="0.5" width="320" height="57" rx="4.5" stroke="#E6E6E6"/>
</svg>
