<svg width="23" height="18" viewBox="0 0 23 18" fill="none" xmlns="http://www.w3.org/2000/svg">
<path d="M7.41075 18C15.713 18 20.2546 11.0731 20.2546 5.07666C20.2546 4.88282 20.2546 4.68622 20.2464 4.49238C21.1306 3.84786 21.8937 3.0499 22.5 2.13589C21.6741 2.50259 20.7988 2.74427 19.9026 2.85308C20.8466 2.28492 21.5536 1.39097 21.8923 0.337373C21.0054 0.866439 20.0346 1.23784 19.0226 1.43531C18.3423 0.705694 17.4419 0.222342 16.4611 0.0601287C15.4803 -0.102085 14.4737 0.0658939 13.5973 0.538044C12.7209 1.0102 12.0236 1.76017 11.6134 2.67179C11.2031 3.58342 11.1029 4.60582 11.3281 5.58063C9.53339 5.49002 7.77762 5.02054 6.17468 4.20266C4.57175 3.38477 3.15744 2.23675 2.0235 0.833039C1.44784 1.83418 1.27216 3.0184 1.53214 4.14523C1.79211 5.27206 2.46825 6.25702 3.42325 6.9001C2.70762 6.87562 2.00772 6.68212 1.38 6.33521V6.39751C1.38123 7.44627 1.74205 8.46244 2.40145 9.27426C3.06086 10.0861 3.9784 10.6437 4.999 10.853C4.61161 10.9604 4.21144 11.014 3.80963 11.0122C3.52635 11.0131 3.24365 10.9866 2.96537 10.9333C3.25383 11.8361 3.8155 12.6254 4.57171 13.1907C5.32793 13.7561 6.24081 14.069 7.1825 14.0859C5.58276 15.3511 3.60668 16.0373 1.5725 16.0339C1.21407 16.0354 0.855882 16.0146 0.5 15.9716C2.56458 17.297 4.96228 18.0007 7.41075 18Z" fill="#23A6F0"/>
</svg>
